<svg width="190" height="346" viewBox="0 0 190 346" fill="none" xmlns="http://www.w3.org/2000/svg">
<g clip-path="url(#clip0_4_49)">
<rect width="190" height="346" fill="white"/>
<path d="M86 0C86 22.0725 89 43.4266 89 65.5C89 86.0552 90 107.144 90 128" stroke="black" stroke-width="3" stroke-linecap="round"/>
<path d="M88 128C85.3379 128 75.7168 127.354 74 129.5C73.1933 130.508 69.8903 130.888 68.5 132C67.6188 132.705 65.5169 134.638 64.4444 134.944C56.5101 137.211 56 148.722 56 155.5C56 162.131 66.1251 172.514 71.5 175.5C80.7856 180.659 89.8605 182 100.5 182C109.329 182 114.128 172.883 119.222 167.222C122.899 163.136 122.561 144.426 118.778 140.222C115.654 136.751 113.122 133.567 109.778 130.222C106.105 126.549 103.268 127.119 99 125.222C95.1375 123.506 90.3751 124 86 124C81.2129 124 77.0521 127 73 127" stroke="black" stroke-width="3" stroke-linecap="round"/>
<path d="M90 181C90 197.049 93 212.185 93 228C93 236.023 94 243.235 94 251C94 254.756 92.0899 272.545 95 274" stroke="black" stroke-width="3" stroke-linecap="round"/>
<path d="M90 203C89.3626 208.099 83.3147 212.649 81.9444 217.444C80.653 221.964 72.4195 225.29 69 227" stroke="black" stroke-width="3" stroke-linecap="round"/>
<path d="M91 204C91.9123 212.211 101.318 214.772 104.5 220.5C105.603 222.486 111.6 225.718 114 226C115.708 226.201 115.953 228 118 228C120.291 228 121.87 228.29 124 229" stroke="black" stroke-width="3" stroke-linecap="round"/>
<path d="M93 273C93 279.136 83.3806 287.635 78.7778 291.778C74.8894 295.277 72.4336 300.122 68.7778 303.778C66.3715 306.184 60 312.442 60 316" stroke="black" stroke-width="3" stroke-linecap="round"/>
<path d="M97 272C97 276.276 101.19 278.748 103.222 282C105.506 285.655 110.221 288.026 113 291.5C118.209 298.011 123.407 304.111 128 311" stroke="black" stroke-width="3" stroke-linecap="round"/>
<path d="M75 144C70.9589 144 72.9156 150 77 150C82.1853 150 79.9689 145 76 145" stroke="black" stroke-width="3" stroke-linecap="round"/>
<path d="M102 144C96.8156 144.648 98.6672 152 103.5 152C106.856 152 106 149.808 106 147C106 143.793 103.581 144 101 144" stroke="black" stroke-width="3" stroke-linecap="round"/>
<path d="M73 165C73 162.437 77.801 161.129 80 161C84.1236 160.757 85.3537 161.196 88.2222 163.778C91.6571 166.869 103.204 171.592 106 166" stroke="black" stroke-width="3" stroke-linecap="round"/>
</g>
<defs>
<clipPath id="clip0_4_49">
<rect width="190" height="346" fill="white"/>
</clipPath>
</defs>
</svg>
