<svg width="70" height="62" viewBox="0 0 70 62" fill="none" xmlns="http://www.w3.org/2000/svg">
<path d="M34 6C31.3379 6 21.7168 5.35401 20 7.5C19.1933 8.50841 15.8903 8.88779 14.5 10C13.6188 10.7049 11.5169 12.638 10.4444 12.9444C2.51006 15.2114 2 26.7223 2 33.5C2 40.1308 12.1251 50.5139 17.5 53.5C26.7856 58.6587 35.8605 60 46.5 60C55.3291 60 60.1278 50.8827 65.2222 45.2222C68.8994 41.1364 68.561 22.4259 64.7778 18.2222C61.6535 14.7509 59.1223 11.5667 55.7778 8.22223C52.1046 4.549 49.2683 5.11926 45 3.22223C41.1375 1.50554 36.3751 2 32 2C27.2129 2 23.0521 5 19 5" stroke="black" stroke-width="3" stroke-linecap="round"/>
</svg>
